<svg width="24" height="18" viewBox="0 0 24 18" fill="none" xmlns="http://www.w3.org/2000/svg">
<path d="M23.0768 2.1309C22.253 2.49228 21.3752 2.73182 20.4599 2.84812C21.4015 2.28597 22.1201 1.4026 22.4579 0.337842C21.5801 0.861221 20.6109 1.23091 19.5779 1.43722C18.7444 0.549686 17.5564 0 16.2604 0C13.746 0 11.7217 2.0409 11.7217 4.54287C11.7217 4.90287 11.7522 5.24902 11.8269 5.57855C8.05114 5.3944 4.7101 3.58473 2.46566 0.827991C2.07382 1.50783 1.84398 2.28597 1.84398 3.12366C1.84398 4.69656 2.65397 6.09086 3.86134 6.89808C3.13166 6.88423 2.41582 6.67239 1.80936 6.3387C1.80936 6.35255 1.80936 6.37055 1.80936 6.38855C1.80936 8.5956 3.38365 10.4288 5.44809 10.8511C5.0784 10.9522 4.67549 11.0006 4.25734 11.0006C3.96657 11.0006 3.67303 10.984 3.3975 10.9231C3.98595 12.7217 5.65578 14.044 7.6413 14.0869C6.09609 15.2957 4.13411 16.024 2.01013 16.024C1.63767 16.024 1.28044 16.0074 0.923218 15.9617C2.93504 17.259 5.31932 17.9998 7.89053 17.9998C16.248 17.9998 20.8172 11.0768 20.8172 5.07594C20.8172 4.87518 20.8102 4.68133 20.8005 4.48887C21.7019 3.84919 22.4593 3.05027 23.0768 2.1309Z" fill="black"/>
</svg>
